<svg width="400" height="400" xmlns="http://www.w3.org/2000/svg">
 <g>
  <title>Layer 1</title>
  <rect opacity="0" y="0.23823" width="400" height="400" id="svg_1" x="0" stroke="null"/>
  <g id="svg_6">
   <!-- 正面 -->
   <rect class="cube" x="200" y="100" width="100" height="100" fill="#3b82f680" stroke="#333333" stroke-width="2" id="svg_7"/>
   <!-- 顶面 -->
   <polygon class="shade" points="200,100 250,50 350,50 300,100 " fill="#3b82f680" stroke="#333333" stroke-width="2" id="svg_8"/>
   <!-- 侧面 -->
   <polygon class="shade" points="300,100 350,50 350,150 300,200 " fill="#3b82f680" stroke="#333333" stroke-width="2" id="svg_9"/>
  </g>
  <g id="svg_10">
   <!-- 正面 -->
   <rect class="cube" x="125" y="175" width="100" height="100" fill="#3b82f680" stroke="#333333" stroke-width="2" id="svg_11"/>
   <!-- 顶面 -->
   <polygon class="shade" points="125,175 175,125 275,125 225,175 " fill="#3b82f680" stroke="#333333" stroke-width="2" id="svg_12"/>
   <!-- 侧面 -->
   <polygon class="shade" points="225,175 275,125 275,225 225,275 " fill="#3b82f680" stroke="#333333" stroke-width="2" id="svg_13"/>
  </g>
  <g id="svg_14">
   <!-- 正面 -->
   <rect class="cube" x="50" y="250" width="100" height="100" fill="#3b82f680" stroke="#333333" stroke-width="2" id="svg_15"/>
   <!-- 顶面 -->
   <polygon class="shade" points="50,250 100,200 200,200 150,250 " fill="#3b82f680" stroke="#333333" stroke-width="2" id="svg_16"/>
   <!-- 侧面 -->
   <polygon class="shade" points="150,250 200,200 200,300 150,350 " fill="#3b82f680" stroke="#333333" stroke-width="2" id="svg_17"/>
   <!-- 填充黑色部分 -->
   <rect x="50" y="300" width="50" height="50" fill="#333333" id="svg_18"/>
  </g>
 </g>

</svg>